<svg width="87" height="79" viewBox="0 0 87 79" fill="none" xmlns="http://www.w3.org/2000/svg">
<path fill-rule="evenodd" clip-rule="evenodd" d="M53.2869 25.212C55.2593 26.8436 57.0671 28.6645 58.6845 30.6485C62.5515 35.3385 65.404 40.9665 66.399 46.7472C66.9736 50.0014 66.7058 53.4091 64.4464 55.9549C60.0633 60.9321 51.2191 58.7304 44.1367 54.5006L39.0638 50.8633C36.6503 48.7955 34.8332 46.5946 34.0679 44.6607C33.0145 41.9809 33.3781 38.5165 35.3914 36.43C37.516 34.2283 40.5788 34.5918 43.2593 36.4876C45.939 34.5918 49.0205 34.2298 51.1225 36.43C51.6512 36.983 52.0788 37.6243 52.3861 38.3249C50.7403 35.8336 47.1216 36.7359 43.9826 40.7174C43.9126 40.8024 43.8486 40.8921 43.791 40.986C43.4851 41.4258 43.0639 41.4258 42.7579 40.986C39.8672 37.119 35.4451 38.4012 37.3782 43.2437C37.8765 44.5073 39.1782 46.0574 40.9595 47.6277C43.429 49.8076 46.3384 51.6854 49.2898 53.0829C54.2094 55.399 59.3011 56.299 61.8243 53.4465C63.2599 51.8193 63.2599 49.4456 62.8964 47.3972C61.7862 41.0615 57.9916 34.7639 53.1911 30.0545C52.5208 29.4037 51.8318 28.791 51.1428 28.1977C47.1419 24.85 43.7918 23.8527 40.1934 25.1925C45.8215 22.7012 49.1902 22.9527 53.2869 25.2112V25.212Z" fill="#0a0a0a"/>
<path fill-rule="evenodd" clip-rule="evenodd" d="M19.9024 48.3363C19.9453 47.8034 20.0155 47.2731 20.1126 46.7473C20.3884 45.1379 20.8052 43.5557 21.3582 42.0193C23.6939 35.3005 28.3262 29.1173 33.8203 24.7529C41.1899 18.8764 45.3427 18.8764 52.7139 24.7529L53.2884 25.2122C49.1918 22.9544 45.823 22.7045 40.195 25.1935C38.6636 25.7673 37.0746 26.763 35.368 28.1987C30.1799 32.5631 25.8154 38.8226 24.0932 45.293C23.9017 46.0015 23.7484 46.7092 23.6144 47.3951C23.2696 49.4434 23.2509 51.8172 24.6865 53.4443C26.01 54.9376 28.0171 55.3969 30.3138 55.1867C23.4035 56.0096 20.4746 52.8316 19.9008 48.3356L19.9024 48.3363Z" fill="#0a0a0a"/>
<path fill-rule="evenodd" clip-rule="evenodd" d="M41.8205 54.8253C34.8331 58.8449 26.3338 60.7974 22.0651 55.9542C20.1896 53.8295 19.6913 51.0922 19.9023 48.3354C20.4761 52.8338 23.4057 56.0118 30.3153 55.1865C32.8424 54.9374 35.7136 53.9035 38.4705 52.4492L41.8205 54.8253Z" fill="#FF6B00"/>
<path fill-rule="evenodd" clip-rule="evenodd" d="M52.3868 38.3247C53.2097 40.2578 53.2292 42.5935 52.5021 44.5266C52.4861 44.5725 52.4669 44.6173 52.4444 44.6605C51.7165 46.4791 50.0901 48.5088 47.9071 50.4606L44.7299 48.336C46.7019 46.7283 48.2139 45.0817 48.9223 43.7231C49.0119 43.5695 49.0899 43.4094 49.1559 43.2443C50.1322 40.7748 49.1559 37.7315 46.1889 39.0519C45.3084 39.4544 44.466 40.1239 43.9872 40.7172C47.1262 36.7357 50.7449 35.8357 52.3907 38.3247H52.3868Z" fill="#FF6B00"/>
<path fill-rule="evenodd" clip-rule="evenodd" d="M30.2203 3.12128C30.0708 3.14403 29.9275 3.19701 29.7991 3.27698C28.8991 3.71686 28.3246 4.82705 28.0373 5.74651C27.5211 7.4118 27.5779 9.2873 27.9804 10.9721C28.3822 12.6374 29.1864 14.3408 30.3939 15.5857C31.0635 16.2747 32.0787 17.0018 33.0931 17.0018C33.2416 17.0018 33.3895 16.9824 33.533 16.9442C33.6801 16.9126 33.8219 16.8602 33.9542 16.7885C34.8542 16.3479 35.4279 15.2377 35.7152 14.319C36.2322 12.6537 36.1746 10.7774 35.7728 9.09266C35.3711 7.42737 34.5669 5.72393 33.3594 4.47983C32.689 3.79082 31.6746 3.0442 30.6602 3.06289C30.5117 3.06321 30.3639 3.08257 30.2203 3.1205V3.12128ZM29.5118 0.134806C33.3017 -0.764406 37.4366 2.92976 38.7383 8.38731C40.04 13.8449 38.0298 19.0112 34.2399 19.9299C30.45 20.8299 26.3151 17.135 25.0134 11.6774C23.7117 6.20273 25.7211 1.05348 29.5118 0.134026V0.134806Z" fill="#0a0a0a"/>
<path fill-rule="evenodd" clip-rule="evenodd" d="M15.2506 21.9573C15.1717 22.0111 15.1007 22.0756 15.0396 22.1489C14.5997 22.704 14.5803 23.6802 14.6573 24.3693C14.8489 25.748 15.5379 27.1261 16.3989 28.2176C17.26 29.3091 18.4278 30.2846 19.7295 30.7984C20.3812 31.032 21.3185 31.2383 21.9873 30.9323C22.0678 30.8949 22.1447 30.8501 22.217 30.7984C22.2904 30.7375 22.3549 30.6664 22.4085 30.5874C22.8678 30.0323 22.8865 29.0568 22.7907 28.367C22.6187 26.989 21.9297 25.611 21.0686 24.5195C20.2075 23.428 19.039 22.4525 17.7209 21.9542C17.0887 21.7059 16.1319 21.4949 15.481 21.7985C15.3961 21.839 15.3175 21.8914 15.2475 21.9542L15.2506 21.9573ZM13.3556 19.5439C15.9591 17.4769 20.4956 18.8743 23.4626 22.6261C26.4296 26.3973 26.7169 31.1254 24.1135 33.1924C21.4914 35.2602 16.9735 33.8627 13.987 30.111C11.02 26.3397 10.7327 21.6117 13.3556 19.5439Z" fill="#0a0a0a"/>
<path fill-rule="evenodd" clip-rule="evenodd" d="M56.292 3.12128C56.1484 3.08211 56.0002 3.06272 55.8513 3.06367C54.8564 3.04498 53.8419 3.7916 53.1716 4.4806C51.947 5.72626 51.1427 7.42815 50.7581 9.09344C50.3564 10.7782 50.2988 12.6545 50.8158 14.3198C51.103 15.2384 51.6581 16.3486 52.5768 16.7893C52.7037 16.8577 52.8387 16.91 52.9785 16.945C53.1225 16.982 53.2705 17.0014 53.4192 17.0026C54.4313 17.0026 55.4481 16.2755 56.1184 15.5864C57.3243 14.3408 58.1278 12.6381 58.5318 10.9728C58.9336 9.28808 58.9912 7.41258 58.4742 5.74729C58.187 4.82783 57.6124 3.71764 56.7132 3.27776C56.5848 3.19779 56.4415 3.14481 56.292 3.12206V3.12128ZM57.0192 0.134806C53.2292 -0.764406 49.0944 2.92976 47.7732 8.38731C46.4715 13.8425 48.4817 19.0112 52.2724 19.9299C56.0623 20.8299 60.1971 17.135 61.5175 11.6774C62.8193 6.20273 60.8099 1.05348 57.0192 0.134026V0.134806Z" fill="#0a0a0a"/>
<path fill-rule="evenodd" clip-rule="evenodd" d="M71.2804 21.9573C71.2047 21.8945 71.1209 21.8421 71.0313 21.8016C70.3804 21.4949 69.443 21.7059 68.7922 21.9573C67.4905 22.4556 66.3009 23.4319 65.4608 24.5226C64.5998 25.6126 63.9108 26.9921 63.7192 28.3702C63.6235 29.0599 63.6414 30.0355 64.1023 30.5906C64.161 30.6654 64.225 30.7359 64.2938 30.8015C64.3699 30.8575 64.4535 30.9026 64.5422 30.9354C65.193 31.2414 66.1506 31.0312 66.782 30.8015C68.1055 30.2846 69.2733 29.3083 70.1297 28.2176C70.9861 27.1268 71.6798 25.748 71.8526 24.3693C71.9484 23.6802 71.9305 22.704 71.4696 22.1489C71.4154 22.0761 71.3509 22.0115 71.2781 21.9573H71.2804ZM73.1754 19.5439C70.5532 17.4769 66.0128 18.8743 63.0489 22.6261C60.0819 26.3973 59.7946 31.1254 62.4175 33.1924C65.021 35.2602 69.5575 33.8627 72.5245 30.111C75.4915 26.3397 75.7788 21.6117 73.1754 19.5439Z" fill="#0a0a0a"/>
<path d="M3.86396 66.4756C5.57926 66.4756 6.83088 66.8068 7.61882 67.4693C8.40677 68.1318 8.80074 69.0598 8.80074 70.2535C8.80074 70.796 8.70983 71.3129 8.52799 71.804C8.35222 72.2895 8.06129 72.7206 7.65519 73.0976C7.2491 73.4688 6.71269 73.7629 6.04596 73.9799C5.3853 74.197 4.57008 74.3055 3.6003 74.3055H2.182V79H0V66.4756H3.86396ZM3.7185 68.1803H2.182V72.5921H3.37301C4.05792 72.5921 4.63979 72.5179 5.11861 72.3694C5.59744 72.2152 5.96111 71.9725 6.20961 71.6413C6.45812 71.31 6.58237 70.8731 6.58237 70.3306C6.58237 69.6053 6.34902 69.0656 5.88231 68.7115C5.42167 68.3574 4.7004 68.1803 3.7185 68.1803Z" fill="#0a0a0a"/>
<path d="M18.9834 79H11.4555V66.4756H18.9834V68.206H13.6375V71.607H18.647V73.3289H13.6375V77.261H18.9834V79Z" fill="#0a0a0a"/>
<path d="M26.4659 79H24.2748V68.2232H20.3835V66.4756H30.348V68.2232H26.4659V79Z" fill="#0a0a0a"/>
<path d="M32.3845 79V66.4756H34.5666V79H32.3845Z" fill="#0a0a0a"/>
<path d="M49.1678 79H46.4857L39.9761 69.0027H39.8943C39.9185 69.3397 39.9397 69.6966 39.9579 70.0736C39.9822 70.4505 40.0003 70.8388 40.0125 71.2386C40.0306 71.6384 40.0458 72.0439 40.0579 72.4551V79H38.0759V66.4756H40.7398L47.2403 76.4043H47.304C47.2919 76.113 47.2767 75.7789 47.2585 75.402C47.2403 75.0251 47.2222 74.6367 47.204 74.2369C47.1919 73.8315 47.1828 73.4402 47.1767 73.0633V66.4756H49.1678V79Z" fill="#0a0a0a"/>
<path d="M63.4508 72.6178C63.4508 74.0285 63.172 75.2078 62.6144 76.1559C62.0567 77.0982 61.2476 77.8092 60.1869 78.2889C59.1262 78.763 57.8473 79 56.3502 79H52.659V66.4756H56.7502C58.1261 66.4756 59.3141 66.7097 60.3142 67.178C61.3143 67.6406 62.0871 68.3288 62.6326 69.2426C63.1781 70.1507 63.4508 71.2757 63.4508 72.6178ZM61.1779 72.6778C61.1779 71.6498 61.0051 70.8046 60.6597 70.1421C60.3202 69.4796 59.8172 68.9885 59.1504 68.6686C58.4898 68.3431 57.6746 68.1803 56.7048 68.1803H54.841V77.2781H56.3866C57.9928 77.2781 59.1929 76.8926 59.9869 76.1216C60.7809 75.3506 61.1779 74.2027 61.1779 72.6778Z" fill="#0a0a0a"/>
<path d="M73.8426 79H66.3147V66.4756H73.8426V68.206H68.4967V71.607H73.5062V73.3289H68.4967V77.261H73.8426V79Z" fill="#0a0a0a"/>
<path d="M80.4522 66.4756C81.5978 66.4756 82.5433 66.6069 83.2888 66.8697C84.0404 67.1324 84.598 67.5321 84.9617 68.069C85.3314 68.6058 85.5163 69.2883 85.5163 70.1164C85.5163 70.7332 85.3951 71.2586 85.1526 71.6927C84.9102 72.1267 84.592 72.4865 84.198 72.772C83.804 73.0576 83.3828 73.286 82.9343 73.4574L86.7073 79H84.2435L81.0341 73.9799H78.8976V79H76.7156V66.4756H80.4522ZM80.3068 68.1889H78.8976V72.2838H80.4068C81.419 72.2838 82.1524 72.1067 82.607 71.7526C83.0676 71.3985 83.2979 70.876 83.2979 70.1849C83.2979 69.4596 83.0525 68.9456 82.5615 68.6429C82.0766 68.3403 81.325 68.1889 80.3068 68.1889Z" fill="#0a0a0a"/>
</svg>

